<?xml version="1.0" encoding="UTF-8"?>
<svg version="1.1" id="Layer_1" xmlns="http://www.w3.org/2000/svg" xmlns:xlink="http://www.w3.org/1999/xlink" 
	 viewBox="0 0 32 32" xml:space="preserve">
  
  <!-- Define gradients -->
  <defs>
    <linearGradient id="topGradient" x1="0%" y1="0%" x2="100%" y2="0%">
      <stop offset="0%" style="stop-color:#4A6BF5;stop-opacity:1" />
      <stop offset="100%" style="stop-color:#3498db;stop-opacity:1" />
    </linearGradient>
    <linearGradient id="rightGradient" x1="0%" y1="0%" x2="100%" y2="0%">
      <stop offset="0%" style="stop-color:#9B59B6;stop-opacity:1" />
      <stop offset="100%" style="stop-color:#8E44AD;stop-opacity:1" />
    </linearGradient>
    <linearGradient id="bottomGradient" x1="0%" y1="0%" x2="100%" y2="0%">
      <stop offset="0%" style="stop-color:#2ECC71;stop-opacity:1" />
      <stop offset="100%" style="stop-color:#27AE60;stop-opacity:1" />
    </linearGradient>
    <linearGradient id="leftGradient" x1="0%" y1="0%" x2="100%" y2="0%">
      <stop offset="0%" style="stop-color:#F1C40F;stop-opacity:1" />
      <stop offset="100%" style="stop-color:#F39C12;stop-opacity:1" />
    </linearGradient>
    <linearGradient id="centerGradient" x1="0%" y1="0%" x2="100%" y2="100%">
      <stop offset="0%" style="stop-color:#E74C3C;stop-opacity:1" />
      <stop offset="100%" style="stop-color:#C0392B;stop-opacity:1" />
    </linearGradient>
  </defs>
  
  <!-- DevOps components with gradients -->
  <path id="top_hexagon" fill="url(#topGradient)" d="M18,8.288h-3.792l-2.896,5.017c-0.1,0.173-0.32,0.231-0.491,0.132
    c-0.173-0.099-0.232-0.32-0.132-0.492l2.896-5.016l-1.896-3.284c-0.064-0.112-0.064-0.249,0-0.36l2-3.464
    C13.752,0.708,13.872,0.64,14,0.64h4c0.129,0,0.247,0.068,0.312,0.18l2,3.464c0.064,0.111,0.064,0.249,0,0.36l-2,3.464
    C18.247,8.22,18.129,8.288,18,8.288z M14.208,7.568h3.584l1.792-3.104L17.792,1.36h-3.584l-1.792,3.104L14.208,7.568z"/>
  
  <path id="right_hexagon" fill="url(#rightGradient)" d="M28,25.593h-4c-0.129,0-0.247-0.069-0.312-0.181l-2-3.465
    c-0.064-0.111-0.064-0.248,0-0.359l1.896-3.284l-2.896-5.016c-0.1-0.172-0.041-0.393,0.132-0.492c0.171-0.1,0.392-0.041,0.491,0.131
    l2.896,5.016H28c0.129,0,0.247,0.069,0.312,0.181l2,3.464c0.064,0.111,0.064,0.248,0,0.359l-2,3.465
    C28.247,25.523,28.129,25.593,28,25.593z M24.208,24.872h3.584l1.792-3.104l-1.792-3.104h-3.584l-1.792,3.104L24.208,24.872z"/>
  
  <path id="bottom_hexagon" fill="url(#bottomGradient)" d="M18,31.36h-4c-0.128,0-0.248-0.069-0.312-0.181l-2-3.464
    c-0.064-0.111-0.064-0.248,0-0.359l2-3.464c0.064-0.111,0.183-0.181,0.312-0.181h3.792l2.896-5.016c0.1-0.174,0.32-0.231,0.491-0.132
    c0.173,0.1,0.231,0.319,0.132,0.491l-2.896,5.017l1.896,3.284c0.064,0.111,0.064,0.248,0,0.359l-2,3.464
    C18.247,31.291,18.129,31.36,18,31.36z M14.208,30.64h3.584l1.792-3.104l-1.792-3.104h-3.584l-1.792,3.104L14.208,30.64z"/>
  
  <path id="left_hexagon" fill="url(#leftGradient)" d="M8,25.593H4c-0.128,0-0.248-0.069-0.312-0.181l-2-3.465
    c-0.064-0.111-0.064-0.248,0-0.359l2-3.464C3.752,18.013,3.872,17.943,4,17.943h4c0.128,0,0.248,0.069,0.312,0.181l1.896,3.283H16
    c0.199,0,0.36,0.161,0.36,0.36s-0.161,0.36-0.36,0.36h-5.792l-1.896,3.284C8.248,25.523,8.128,25.593,8,25.593z M4.208,24.872h3.584
    l1.792-3.104l-1.792-3.104H4.208l-1.792,3.104L4.208,24.872z"/>
  
  <path id="top_left_hexagon" fill="url(#leftGradient)" d="M11,19.253c-0.125,0-0.246-0.064-0.312-0.181l-2.896-5.016H4
    c-0.128,0-0.248-0.068-0.312-0.18l-2-3.464c-0.064-0.111-0.064-0.249,0-0.36l2-3.464C3.752,6.477,3.872,6.408,4,6.408h4
    c0.128,0,0.248,0.068,0.312,0.18l2,3.464c0.064,0.111,0.064,0.249,0,0.36l-1.896,3.284l2.896,5.017
    c0.099,0.172,0.04,0.392-0.132,0.491C11.124,19.237,11.062,19.253,11,19.253z M4.208,13.336h3.584l1.792-3.104L7.792,7.128H4.208
    l-1.792,3.104L4.208,13.336z"/>
  
  <path id="top_right_hexagon" fill="url(#rightGradient)" d="M28,14.056h-4c-0.129,0-0.247-0.068-0.312-0.18l-1.896-3.285H16
    c-0.199,0-0.36-0.161-0.36-0.36s0.161-0.36,0.36-0.36h5.792l1.896-3.284c0.064-0.111,0.183-0.18,0.312-0.18h4
    c0.129,0,0.247,0.068,0.312,0.18l2,3.464c0.064,0.111,0.064,0.249,0,0.36l-2,3.464C28.247,13.988,28.129,14.056,28,14.056z
    M24.208,13.336h3.584l1.792-3.104l-1.792-3.104h-3.584l-1.792,3.104L24.208,13.336z"/>
  
  <!-- Center circle with gradient -->
  <circle cx="16" cy="16" r="4" fill="url(#centerGradient)" />
  
  <!-- Inner lines in white with shadow effect -->
  <g stroke="white" stroke-width="0.5" stroke-linecap="round" stroke-linejoin="round" filter="drop-shadow(0px 1px 1px rgba(0,0,0,0.3))">
    <line x1="16" y1="12" x2="16" y2="20" />
    <line x1="12" y1="16" x2="20" y2="16" />
    <path d="M13.5,13.5L18.5,18.5" />
    <path d="M13.5,18.5L18.5,13.5" />
  </g>
</svg> 